<?xml version="1.0"?>
<svg xmlns="http://www.w3.org/2000/svg" xmlns:xlink="http://www.w3.org/1999/xlink" xmlns:svgjs="http://svgjs.com/svgjs" version="1.1" width="512px" height="512px" x="0" y="0" viewBox="0 0 66 66" style="enable-background:new 0 0 512 512" xml:space="preserve" class=""><g><g><path d="m42.95 63.01h-9.07c-.41 0-.75.34-.75.75s.34.75.75.75h9.07c.41 0 .75-.34.75-.75s-.34-.75-.75-.75z" fill="#3570ff" data-original="#000000" class=""/><path d="m9.98 29.96c.41 0 .75-.34.75-.75v-12.71c0-.07.02-.13.03-.2h10.82c1.35 0 2.45-1.1 2.45-2.45v-10.83c.07-.01.13-.03.21-.03h29.73c1.69 0 3.06 1.37 3.06 3.06v30.96c0 .41.34.75.75.75s.75-.34.75-.75v-30.96c0-2.51-2.04-4.56-4.56-4.56h-29.73c-.41 0-.8.05-1.15.15-.79.2-1.51.61-2.08 1.19l-10.44 10.45c-.58.58-.99 1.3-1.18 2.07-.1.36-.15.75-.15 1.16v12.71c-.01.41.33.74.74.74zm12.09-26.07c.14-.14.3-.24.46-.35v10.31c0 .51-.44.95-.95.95h-10.3c.11-.16.21-.32.35-.46z" fill="#3570ff" data-original="#000000" class=""/><path d="m29.45 41.38v-8.5c0-.72-.59-1.31-1.31-1.31h-4.42c-.72 0-1.31.59-1.31 1.31v1.65l-4.2-4.09c-.58-.57-1.49-.57-2.08 0l-14.36 14c-.44.42-.57 1.06-.34 1.63.23.56.77.93 1.38.93h1.72v15.5c0 1.11.9 2.01 2.01 2.01h21.27c1.11 0 2.01-.9 2.01-2.01v-15.51h1.72c.61 0 1.15-.36 1.38-.93.23-.56.1-1.2-.34-1.63zm-5.54-8.31h4.03v6.85l-4.03-3.93zm-10.12 29.94v-8.85c0-.13.11-.23.23-.23h6.31c.13 0 .24.11.24.23v8.85zm14.53-.51c0 .28-.23.51-.51.51h-5.74v-8.85c0-.96-.78-1.73-1.74-1.73h-6.31c-.96 0-1.73.78-1.73 1.73v8.85h-5.75c-.28 0-.51-.23-.51-.51v-15.51h22.29zm-25.5-16.99 14.35-14.01 14.38 13.99z" fill="#3570ff" data-original="#000000" class=""/><path d="m17.18 36.26c-1.92 0-3.48 1.57-3.48 3.49s1.56 3.48 3.48 3.48 3.48-1.56 3.48-3.48c0-1.93-1.56-3.49-3.48-3.49zm0 5.47c-1.09 0-1.98-.89-1.98-1.98 0-1.1.89-1.99 1.98-1.99s1.98.89 1.98 1.99c0 1.09-.89 1.98-1.98 1.98z" fill="#3570ff" data-original="#000000" class=""/><path d="m52.25 10.88c0-.67-.55-1.22-1.22-1.22h-18.28c-.67 0-1.22.55-1.22 1.22v5.75c0 .67.55 1.22 1.22 1.22h18.28c.67 0 1.22-.55 1.22-1.22zm-1.5 5.46h-17.71v-5.18h17.71z" fill="#3570ff" data-original="#000000" class=""/><path d="m51.5 23.02h-34.32c-.41 0-.75.34-.75.75s.34.75.75.75h34.32c.41 0 .75-.34.75-.75s-.33-.75-.75-.75z" fill="#3570ff" data-original="#000000" class=""/><path d="m51.5 29.7h-19.21c-.41 0-.75.34-.75.75s.34.75.75.75h19.21c.41 0 .75-.34.75-.75s-.33-.75-.75-.75z" fill="#3570ff" data-original="#000000" class=""/><path d="m51.5 37.22h-13.59c-.41 0-.75.34-.75.75s.34.75.75.75h13.59c.41 0 .75-.34.75-.75s-.33-.75-.75-.75z" fill="#3570ff" data-original="#000000" class=""/><path d="m53.19 41.53c-6.33 0-11.49 5.15-11.49 11.49s5.15 11.49 11.49 11.49 11.49-5.15 11.49-11.49-5.16-11.49-11.49-11.49zm0 21.48c-5.51 0-9.99-4.48-9.99-9.99s4.48-9.99 9.99-9.99 9.99 4.48 9.99 9.99-4.48 9.99-9.99 9.99z" fill="#3570ff" data-original="#000000" class=""/><path d="m53.14 49.27c.02 0 .03.01.05.01s.03-.01.05-.01c.8.03 1.45.69 1.45 1.5 0 .41.34.75.75.75s.75-.34.75-.75c0-1.4-.96-2.57-2.25-2.9v-.69c0-.41-.34-.75-.75-.75s-.75.34-.75.75v.7c-1.29.34-2.25 1.5-2.25 2.9 0 1.65 1.35 3 3.01 3 .83 0 1.5.68 1.5 1.51 0 .81-.65 1.47-1.45 1.5-.02 0-.04-.01-.06-.01s-.04.01-.05.01c-.8-.03-1.45-.69-1.45-1.5 0-.41-.34-.75-.75-.75s-.75.34-.75.75c0 1.39.96 2.56 2.25 2.9v.69c0 .41.34.75.75.75s.75-.34.75-.75v-.69c1.29-.33 2.25-1.5 2.25-2.9 0-1.66-1.35-3.01-3-3.01-.83 0-1.51-.67-1.51-1.5.01-.82.65-1.48 1.46-1.51z" fill="#3570ff" data-original="#000000" class=""/></g></g></svg>
